<mxfile host="Electron" modified="2024-04-06T11:04:53.988Z" agent="Mozilla/5.0 (Windows NT 10.0; Win64; x64) AppleWebKit/537.36 (KHTML, like Gecko) draw.io/24.0.4 Chrome/120.0.6099.109 Electron/28.1.0 Safari/537.36" etag="3Un0tz_o2ZTFyKteDIUh" version="24.0.4" type="device">
  <diagram id="23iRSUPoRavnBvh4doch" name="Page-1">
    <mxGraphModel dx="1434" dy="836" grid="1" gridSize="10" guides="1" tooltips="1" connect="1" arrows="1" fold="1" page="1" pageScale="1" pageWidth="827" pageHeight="1169" math="0" shadow="0">
      <root>
        <mxCell id="0" />
        <mxCell id="1" parent="0" />
        <mxCell id="SRyxngIl7tBlxHs5BokF-2" value="Start" style="rounded=1;whiteSpace=wrap;html=1;perimeterSpacing=0;perimeter=rectanglePerimeter;direction=east;arcSize=50;fillColor=#B2C9AB;strokeColor=#788AA3;fontColor=#46495D;fontSize=20;fontFamily=Comic Sans MS;labelBackgroundColor=none;" parent="1" vertex="1">
          <mxGeometry x="352" y="160" width="120" height="40" as="geometry" />
        </mxCell>
        <mxCell id="SRyxngIl7tBlxHs5BokF-6" value="" style="endArrow=classic;html=1;rounded=0;strokeColor=#788AA3;fontColor=#46495D;fillColor=#B2C9AB;exitX=0.5;exitY=1;exitDx=0;exitDy=0;entryX=0.5;entryY=0;entryDx=0;entryDy=0;" parent="1" source="SRyxngIl7tBlxHs5BokF-2" target="SRyxngIl7tBlxHs5BokF-8" edge="1">
          <mxGeometry width="50" height="50" relative="1" as="geometry">
            <mxPoint x="398" y="220" as="sourcePoint" />
            <mxPoint x="411.66666666666674" y="240" as="targetPoint" />
          </mxGeometry>
        </mxCell>
        <mxCell id="SRyxngIl7tBlxHs5BokF-8" value="print node.ch" style="shape=parallelogram;perimeter=parallelogramPerimeter;whiteSpace=wrap;html=1;fixedSize=1;strokeColor=#788AA3;fontColor=#46495D;fillColor=#B2C9AB;fontSize=16;fontFamily=Comic Sans MS;" parent="1" vertex="1">
          <mxGeometry x="333.5" y="280" width="160" height="40" as="geometry" />
        </mxCell>
        <mxCell id="SRyxngIl7tBlxHs5BokF-11" value="&lt;div&gt;left child&lt;/div&gt;&lt;div&gt;exist ?&lt;/div&gt;" style="rhombus;whiteSpace=wrap;html=1;strokeColor=#788AA3;fontColor=#46495D;fillColor=#B2C9AB;" parent="1" vertex="1">
          <mxGeometry x="374" y="360" width="80" height="80" as="geometry" />
        </mxCell>
        <mxCell id="SRyxngIl7tBlxHs5BokF-13" value="True" style="text;html=1;align=center;verticalAlign=middle;resizable=0;points=[];autosize=1;strokeColor=none;fillColor=none;fontColor=#46495D;" parent="1" vertex="1">
          <mxGeometry x="326" y="370" width="50" height="30" as="geometry" />
        </mxCell>
        <mxCell id="SRyxngIl7tBlxHs5BokF-14" value="" style="endArrow=classic;html=1;rounded=0;strokeColor=#788AA3;fontColor=#46495D;fillColor=#B2C9AB;exitX=0.5;exitY=1;exitDx=0;exitDy=0;entryX=0.5;entryY=0;entryDx=0;entryDy=0;" parent="1" source="SRyxngIl7tBlxHs5BokF-11" target="SRyxngIl7tBlxHs5BokF-15" edge="1">
          <mxGeometry width="50" height="50" relative="1" as="geometry">
            <mxPoint x="310" y="400" as="sourcePoint" />
            <mxPoint x="510" y="480" as="targetPoint" />
          </mxGeometry>
        </mxCell>
        <mxCell id="SRyxngIl7tBlxHs5BokF-15" value="&lt;div&gt;right child&lt;/div&gt;&lt;div&gt;exist ?&lt;/div&gt;" style="rhombus;whiteSpace=wrap;html=1;strokeColor=#788AA3;fontColor=#46495D;fillColor=#B2C9AB;" parent="1" vertex="1">
          <mxGeometry x="374" y="480" width="80" height="80" as="geometry" />
        </mxCell>
        <mxCell id="SRyxngIl7tBlxHs5BokF-16" value="False" style="text;html=1;align=center;verticalAlign=middle;resizable=0;points=[];autosize=1;strokeColor=none;fillColor=none;fontColor=#46495D;" parent="1" vertex="1">
          <mxGeometry x="364" y="440" width="50" height="30" as="geometry" />
        </mxCell>
        <mxCell id="SRyxngIl7tBlxHs5BokF-18" value="True" style="text;html=1;align=center;verticalAlign=middle;resizable=0;points=[];autosize=1;strokeColor=none;fillColor=none;fontColor=#46495D;" parent="1" vertex="1">
          <mxGeometry x="454" y="490" width="50" height="30" as="geometry" />
        </mxCell>
        <mxCell id="SRyxngIl7tBlxHs5BokF-19" value="" style="endArrow=classic;html=1;rounded=0;strokeColor=#788AA3;fontColor=#46495D;fillColor=#B2C9AB;exitX=0.5;exitY=1;exitDx=0;exitDy=0;entryX=0.5;entryY=0;entryDx=0;entryDy=0;" parent="1" source="SRyxngIl7tBlxHs5BokF-8" target="SRyxngIl7tBlxHs5BokF-11" edge="1">
          <mxGeometry width="50" height="50" relative="1" as="geometry">
            <mxPoint x="260" y="500" as="sourcePoint" />
            <mxPoint x="310" y="450" as="targetPoint" />
          </mxGeometry>
        </mxCell>
        <mxCell id="SRyxngIl7tBlxHs5BokF-20" value="" style="endArrow=classic;html=1;rounded=0;strokeColor=#788AA3;fontColor=#46495D;fillColor=#B2C9AB;exitX=0.5;exitY=1;exitDx=0;exitDy=0;" parent="1" source="SRyxngIl7tBlxHs5BokF-15" target="SRyxngIl7tBlxHs5BokF-21" edge="1">
          <mxGeometry width="50" height="50" relative="1" as="geometry">
            <mxPoint x="290" y="540" as="sourcePoint" />
            <mxPoint x="414" y="600" as="targetPoint" />
          </mxGeometry>
        </mxCell>
        <mxCell id="SRyxngIl7tBlxHs5BokF-21" value="End" style="rounded=1;whiteSpace=wrap;html=1;strokeColor=#788AA3;fontColor=#46495D;fillColor=#B2C9AB;arcSize=50;fontSize=20;fontFamily=Comic Sans MS;" parent="1" vertex="1">
          <mxGeometry x="354" y="600" width="120" height="40" as="geometry" />
        </mxCell>
        <mxCell id="SRyxngIl7tBlxHs5BokF-22" value="&lt;h1&gt;&lt;font style=&quot;font-size: 24px;&quot;&gt;Binary tree deep walk&amp;nbsp;&lt;/font&gt;&lt;/h1&gt;" style="text;html=1;align=center;verticalAlign=middle;resizable=0;points=[];autosize=1;strokeColor=none;fillColor=none;fontColor=#46495D;fontFamily=Verdana;" parent="1" vertex="1">
          <mxGeometry x="249" y="30" width="330" height="70" as="geometry" />
        </mxCell>
        <mxCell id="SRyxngIl7tBlxHs5BokF-23" value="False" style="text;html=1;align=center;verticalAlign=middle;resizable=0;points=[];autosize=1;strokeColor=none;fillColor=none;fontColor=#46495D;" parent="1" vertex="1">
          <mxGeometry x="414" y="560" width="50" height="30" as="geometry" />
        </mxCell>
        <mxCell id="SRyxngIl7tBlxHs5BokF-24" value="&lt;font style=&quot;font-size: 16px;&quot;&gt;node = left child&lt;/font&gt;" style="rounded=0;whiteSpace=wrap;html=1;strokeColor=#788AA3;fontColor=#46495D;fillColor=#B2C9AB;fontSize=16;fontFamily=Comic Sans MS;" parent="1" vertex="1">
          <mxGeometry x="142" y="380" width="160" height="40" as="geometry" />
        </mxCell>
        <mxCell id="SRyxngIl7tBlxHs5BokF-25" value="&lt;font style=&quot;font-size: 16px;&quot;&gt;node = right child&lt;/font&gt;" style="rounded=0;whiteSpace=wrap;html=1;strokeColor=#788AA3;fontColor=#46495D;fillColor=#B2C9AB;fontSize=16;fontFamily=Comic Sans MS;" parent="1" vertex="1">
          <mxGeometry x="522" y="500" width="160" height="40" as="geometry" />
        </mxCell>
        <mxCell id="SRyxngIl7tBlxHs5BokF-26" value="" style="endArrow=classic;html=1;rounded=0;strokeColor=#788AA3;fontColor=#46495D;fillColor=#B2C9AB;exitX=1;exitY=0.5;exitDx=0;exitDy=0;entryX=0;entryY=0.5;entryDx=0;entryDy=0;" parent="1" source="SRyxngIl7tBlxHs5BokF-15" target="SRyxngIl7tBlxHs5BokF-25" edge="1">
          <mxGeometry width="50" height="50" relative="1" as="geometry">
            <mxPoint x="186" y="470" as="sourcePoint" />
            <mxPoint x="466" y="530" as="targetPoint" />
          </mxGeometry>
        </mxCell>
        <mxCell id="SRyxngIl7tBlxHs5BokF-27" value="" style="endArrow=classic;html=1;rounded=0;strokeColor=#788AA3;fontColor=#46495D;fillColor=#B2C9AB;exitX=0;exitY=0.5;exitDx=0;exitDy=0;entryX=1;entryY=0.5;entryDx=0;entryDy=0;" parent="1" source="SRyxngIl7tBlxHs5BokF-11" target="SRyxngIl7tBlxHs5BokF-24" edge="1">
          <mxGeometry width="50" height="50" relative="1" as="geometry">
            <mxPoint x="306" y="450" as="sourcePoint" />
            <mxPoint x="356" y="400" as="targetPoint" />
          </mxGeometry>
        </mxCell>
        <mxCell id="uAH1_69QyT9cGK6XRmTa-3" value="" style="endArrow=classic;html=1;rounded=0;strokeColor=#788AA3;fontColor=#46495D;fillColor=#B2C9AB;" parent="1" source="SRyxngIl7tBlxHs5BokF-24" edge="1">
          <mxGeometry width="50" height="50" relative="1" as="geometry">
            <mxPoint x="222" y="280" as="sourcePoint" />
            <mxPoint x="414" y="240" as="targetPoint" />
            <Array as="points">
              <mxPoint x="222" y="240" />
            </Array>
          </mxGeometry>
        </mxCell>
        <mxCell id="uAH1_69QyT9cGK6XRmTa-4" value="" style="endArrow=classic;html=1;rounded=0;strokeColor=#788AA3;fontColor=#46495D;fillColor=#B2C9AB;exitX=0.5;exitY=0;exitDx=0;exitDy=0;" parent="1" source="SRyxngIl7tBlxHs5BokF-25" edge="1">
          <mxGeometry width="50" height="50" relative="1" as="geometry">
            <mxPoint x="602" y="280" as="sourcePoint" />
            <mxPoint x="412" y="240" as="targetPoint" />
            <Array as="points">
              <mxPoint x="602" y="240" />
            </Array>
          </mxGeometry>
        </mxCell>
      </root>
    </mxGraphModel>
  </diagram>
</mxfile>
